PathFileType	4	(X/Y/Z)	output.trc
DataRate	CameraRate	NumFrames	NumMarkers	Units	OrigDataRate	OrigDataStartFrame	OrigNumFrames
30	30	10	17	m	30	545	1089
Frame#	Time	root		right_hip		right_knee		right_ankle		left_hip		left_knee		left_ankle		torso		thorax		neck		head		left_shoulder		left_elbow		left_wrist		right_shoulder		right_elbow		right_wrist
		X1	Y1	Z1	X2	Y2	Z2	X3	Y3	Z3	X4	Y4	Z4	X5	Y5	Z5	X6	Y6	Z6	X7	Y7	Z7	X8	Y8	Z8	X9	Y9	Z9	X10	Y10	Z10	X11	Y11	Z11	X12	Y12	Z12	X13	Y13	Z13	X14	Y14	Z14	X15	Y15	Z15	X16	Y16	Z16	X17	Y17	Z17

545.0	18.133333	0.000180	-0.000036	0.791553	0.081827	0.033817	0.780689	0.089098	0.048718	0.406741	0.037864	0.214321	0.000000	-0.081800	-0.033803	0.802401	-0.083712	-0.024840	0.410298	-0.147461	0.074369	0.012566	0.013538	-0.017254	1.038118	0.040017	-0.052501	1.293272	0.060446	-0.126968	1.445333	0.071303	-0.021575	1.482618	-0.103733	-0.058500	1.252038	-0.217852	0.026209	1.013574	-0.241525	0.031851	0.782480	0.169267	-0.004219	1.248403	0.242611	0.137344	1.026598	0.286171	0.137995	0.781028
546.0	18.166667	0.000178	-0.000037	0.787458	0.082525	0.026325	0.776590	0.084304	0.037949	0.410232	0.046385	0.202872	0.000000	-0.082497	-0.026311	0.798310	-0.084872	-0.025344	0.408470	-0.137678	0.067524	0.009979	0.015219	-0.016687	1.033888	0.037105	-0.051168	1.288354	0.049648	-0.125022	1.443502	0.060844	-0.016431	1.478895	-0.104854	-0.049943	1.246287	-0.214622	0.038646	1.007383	-0.240301	0.041175	0.777994	0.168196	-0.010438	1.243808	0.250971	0.126619	1.022482	0.289779	0.127782	0.779459
547.0	18.200000	0.000177	-0.000038	0.777476	0.080202	0.016701	0.768354	0.073509	0.026452	0.411164	0.057731	0.190550	0.000000	-0.080175	-0.016687	0.786587	-0.086673	-0.027136	0.402046	-0.132033	0.066635	0.009033	0.013443	-0.015795	1.023762	0.034584	-0.049255	1.277837	0.044817	-0.121183	1.438260	0.058418	-0.008705	1.470471	-0.104901	-0.040892	1.237296	-0.210719	0.052714	1.000382	-0.241943	0.056888	0.773691	0.165535	-0.016424	1.231348	0.265438	0.118702	1.017943	0.293786	0.115951	0.770309
548.0	18.233333	0.000173	-0.000037	0.776700	0.078577	0.014541	0.766348	0.071129	0.028103	0.410123	0.058484	0.188121	0.000000	-0.078557	-0.014531	0.787041	-0.086657	-0.016897	0.400552	-0.133444	0.074000	0.011513	0.012791	-0.015325	1.022115	0.030300	-0.049015	1.276197	0.035113	-0.119042	1.434154	0.047929	-0.013464	1.469096	-0.104037	-0.037610	1.233367	-0.208869	0.050941	0.993487	-0.240976	0.046172	0.771089	0.158781	-0.021781	1.232169	0.268274	0.103945	1.016088	0.302921	0.092765	0.768188
549.0	18.266667	0.000171	-0.000038	0.775440	0.078270	0.010009	0.765766	0.066913	0.018562	0.420039	0.062079	0.172906	0.000000	-0.078247	-0.009997	0.785101	-0.089111	-0.017646	0.407306	-0.132468	0.077289	0.015120	0.012930	-0.014800	1.020435	0.030115	-0.048060	1.275121	0.030001	-0.120524	1.434537	0.042571	-0.011308	1.468867	-0.104628	-0.033529	1.232696	-0.204408	0.059326	0.993972	-0.229546	0.051747	0.777155	0.160926	-0.024494	1.229742	0.278087	0.101918	1.019836	0.299242	0.087959	0.773522
550.0	18.300000	0.000168	-0.000038	0.785004	0.077752	0.008767	0.774130	0.071003	0.023555	0.419662	0.066199	0.174943	0.000000	-0.077732	-0.008757	0.795862	-0.088793	-0.000692	0.411904	-0.134867	0.101612	0.021722	0.015394	-0.014675	1.028050	0.032173	-0.047850	1.283577	0.023422	-0.115863	1.441050	0.037384	-0.012027	1.476723	-0.098796	-0.031587	1.239796	-0.197728	0.053725	0.997364	-0.223488	0.041381	0.776447	0.160557	-0.028210	1.237392	0.284625	0.090326	1.025523	0.304717	0.072377	0.773539
551.0	18.333333	0.000166	-0.000041	0.786411	0.074752	0.006577	0.776364	0.067708	0.014917	0.429220	0.064565	0.156518	0.000000	-0.074731	-0.006566	0.796444	-0.089268	-0.002310	0.419765	-0.130835	0.096607	0.027355	0.014221	-0.013502	1.028874	0.028188	-0.045425	1.285007	0.019139	-0.114971	1.444743	0.032270	-0.009519	1.479210	-0.098005	-0.027064	1.238157	-0.184405	0.062513	0.995223	-0.214362	0.046349	0.788377	0.154433	-0.028985	1.241186	0.284090	0.088732	1.035672	0.293689	0.067640	0.779960
552.0	18.366667	0.000163	-0.000040	0.785169	0.073737	0.002654	0.774469	0.064655	0.013951	0.430790	0.063516	0.150715	0.000000	-0.073720	-0.002646	0.795856	-0.090355	0.001565	0.420295	-0.129198	0.098720	0.028262	0.015097	-0.013700	1.027563	0.028242	-0.045202	1.284075	0.011972	-0.113848	1.443564	0.026698	-0.010144	1.478769	-0.096281	-0.023353	1.238782	-0.178991	0.067848	0.997205	-0.203978	0.058871	0.787943	0.152918	-0.032659	1.237586	0.283034	0.082580	1.036004	0.285494	0.061549	0.779828
553.0	18.400000	0.000163	-0.000041	0.782967	0.071951	0.000655	0.771920	0.062058	0.013972	0.428941	0.060262	0.151221	0.000000	-0.071936	-0.000648	0.794001	-0.086825	0.000629	0.420717	-0.125284	0.096921	0.028500	0.016295	-0.012979	1.025039	0.027390	-0.043561	1.281657	0.005786	-0.110154	1.441698	0.022806	-0.008771	1.476701	-0.092155	-0.018755	1.235640	-0.168081	0.070207	0.993566	-0.188290	0.061167	0.784841	0.149007	-0.034458	1.235038	0.285203	0.077406	1.034137	0.278830	0.057785	0.778806
554.0	18.433333	0.000164	-0.000041	0.780689	0.070091	0.001045	0.769256	0.066525	0.014205	0.423545	0.057605	0.155189	0.000000	-0.070077	-0.001039	0.792110	-0.085789	0.003468	0.418744	-0.129558	0.104564	0.031639	0.015265	-0.014060	1.022772	0.024408	-0.044225	1.278957	-0.003129	-0.111055	1.439496	0.016133	-0.011915	1.474729	-0.091548	-0.019829	1.230616	-0.164655	0.065120	0.987445	-0.178268	0.054103	0.783330	0.142960	-0.034640	1.235657	0.276826	0.079768	1.036148	0.266245	0.063223	0.782227
